{
	"asset":{
		"generator":"Khronos glTF Blender I/O v4.1.63",
		"version":"2.0"
	},
	"scene":0,
	"scenes":[
		{
			"name":"Scene",
			"nodes":[
				0,
				1,
				2
			]
		}
	],
	"nodes":[
		{
			"name":"Cobotta"
		},
		{
			"name":"Cobotta.001"
		},
		{
			"mesh":0,
			"name":"COBOTTA_HAND"
		}
	],
	"materials":[
		{
			"doubleSided":true,
			"name":"mat_0",
			"pbrMetallicRoughness":{
				"metallicFactor":0.5,
				"roughnessFactor":0.5
			}
		}
	],
	"meshes":[
		{
			"name":"COBOTTA_HAND",
			"primitives":[
				{
					"attributes":{
						"POSITION":0,
						"NORMAL":1
					},
					"indices":2,
					"material":0
				}
			]
		}
	],
	"accessors":[
		{
			"bufferView":0,
			"componentType":5126,
			"count":1155,
			"max":[
				0.030872715637087822,
				0.027899591252207756,
				0.07797858119010925
			],
			"min":[
				-0.03086906112730503,
				-0.02787730284035206,
				0.039278581738471985
			],
			"type":"VEC3"
		},
		{
			"bufferView":1,
			"componentType":5126,
			"count":1155,
			"type":"VEC3"
		},
		{
			"bufferView":2,
			"componentType":5123,
			"count":4290,
			"type":"SCALAR"
		}
	],
	"bufferViews":[
		{
			"buffer":0,
			"byteLength":13860,
			"byteOffset":0,
			"target":34962
		},
		{
			"buffer":0,
			"byteLength":13860,
			"byteOffset":13860,
			"target":34962
		},
		{
			"buffer":0,
			"byteLength":8580,
			"byteOffset":27720,
			"target":34963
		}
	],
	"buffers":[
		{
			"byteLength":36300,
			"uri":"Cobotta_j5.bin"
		}
	]
}
