{
	"asset":{
		"generator":"Khronos glTF Blender I/O v4.1.63",
		"version":"2.0"
	},
	"scene":0,
	"scenes":[
		{
			"name":"Scene",
			"nodes":[
				1
			]
		}
	],
	"nodes":[
		{
			"mesh":0,
			"name":"COBOTTA_J34"
		},
		{
			"children":[
				0
			],
			"name":"Cobotta"
		}
	],
	"materials":[
		{
			"doubleSided":true,
			"name":"mat_0",
			"pbrMetallicRoughness":{
				"metallicFactor":0.5,
				"roughnessFactor":0.5
			}
		}
	],
	"meshes":[
		{
			"name":"COBOTTA_J34",
			"primitives":[
				{
					"attributes":{
						"POSITION":0,
						"NORMAL":1
					},
					"indices":2,
					"material":0
				}
			]
		}
	],
	"accessors":[
		{
			"bufferView":0,
			"componentType":5126,
			"count":1062,
			"max":[
				0.06350000202655792,
				0.08799999952316284,
				0.03313643857836723
			],
			"min":[
				-0.013292447663843632,
				-0.033043764531612396,
				-0.04271284490823746
			],
			"type":"VEC3"
		},
		{
			"bufferView":1,
			"componentType":5126,
			"count":1062,
			"type":"VEC3"
		},
		{
			"bufferView":2,
			"componentType":5123,
			"count":4692,
			"type":"SCALAR"
		}
	],
	"bufferViews":[
		{
			"buffer":0,
			"byteLength":12744,
			"byteOffset":0,
			"target":34962
		},
		{
			"buffer":0,
			"byteLength":12744,
			"byteOffset":12744,
			"target":34962
		},
		{
			"buffer":0,
			"byteLength":9384,
			"byteOffset":25488,
			"target":34963
		}
	],
	"buffers":[
		{
			"byteLength":34872,
			"uri":"Cobotta_j2.bin"
		}
	]
}
