{
	"asset":{
		"generator":"Khronos glTF Blender I/O v4.1.63",
		"version":"2.0"
	},
	"scene":0,
	"scenes":[
		{
			"name":"Scene",
			"nodes":[
				1
			]
		}
	],
	"nodes":[
		{
			"mesh":0,
			"name":"COBOTTA_HAND_FINGER_1"
		},
		{
			"children":[
				0
			],
			"name":"COBOTTA_HAND_FINGER_ASM"
		}
	],
	"materials":[
		{
			"doubleSided":true,
			"name":"mat_0",
			"pbrMetallicRoughness":{
				"metallicFactor":0.5,
				"roughnessFactor":0.5
			}
		}
	],
	"meshes":[
		{
			"name":"COBOTTA_HAND_FINGER_1",
			"primitives":[
				{
					"attributes":{
						"POSITION":0,
						"NORMAL":1
					},
					"indices":2,
					"material":0
				}
			]
		}
	],
	"accessors":[
		{
			"bufferView":0,
			"componentType":5126,
			"count":1315,
			"max":[
				0.01397964358329773,
				0.01550629734992981,
				0.02437783218920231
			],
			"min":[
				5.611265078186989e-05,
				-0.015392409637570381,
				-0.005922162439674139
			],
			"type":"VEC3"
		},
		{
			"bufferView":1,
			"componentType":5126,
			"count":1315,
			"type":"VEC3"
		},
		{
			"bufferView":2,
			"componentType":5123,
			"count":4494,
			"type":"SCALAR"
		}
	],
	"bufferViews":[
		{
			"buffer":0,
			"byteLength":15780,
			"byteOffset":0,
			"target":34962
		},
		{
			"buffer":0,
			"byteLength":15780,
			"byteOffset":15780,
			"target":34962
		},
		{
			"buffer":0,
			"byteLength":8988,
			"byteOffset":31560,
			"target":34963
		}
	],
	"buffers":[
		{
			"byteLength":40548,
			"uri":"Cobotta_j6_1.bin"
		}
	]
}
