{
	"asset":{
		"generator":"Khronos glTF Blender I/O v4.1.63",
		"version":"2.0"
	},
	"scene":0,
	"scenes":[
		{
			"name":"Scene",
			"nodes":[
				1
			]
		}
	],
	"nodes":[
		{
			"mesh":0,
			"name":"COBOTTA_2NDARM"
		},
		{
			"children":[
				0
			],
			"name":"Cobotta",
			"translation":[
				0,
				-0.08889999985694885,
				0
			]
		}
	],
	"materials":[
		{
			"doubleSided":true,
			"name":"mat_0",
			"pbrMetallicRoughness":{
				"metallicFactor":0.5,
				"roughnessFactor":0.5
			}
		}
	],
	"meshes":[
		{
			"name":"COBOTTA_2NDARM",
			"primitives":[
				{
					"attributes":{
						"POSITION":0,
						"NORMAL":1
					},
					"indices":2,
					"material":0
				}
			]
		}
	],
	"accessors":[
		{
			"bufferView":0,
			"componentType":5126,
			"count":1256,
			"max":[
				0.03083133138716221,
				0.11600229889154434,
				0.030692635104060173
			],
			"min":[
				-0.030855543911457062,
				-0.005688553210347891,
				-0.030681131407618523
			],
			"type":"VEC3"
		},
		{
			"bufferView":1,
			"componentType":5126,
			"count":1256,
			"type":"VEC3"
		},
		{
			"bufferView":2,
			"componentType":5123,
			"count":5826,
			"type":"SCALAR"
		}
	],
	"bufferViews":[
		{
			"buffer":0,
			"byteLength":15072,
			"byteOffset":0,
			"target":34962
		},
		{
			"buffer":0,
			"byteLength":15072,
			"byteOffset":15072,
			"target":34962
		},
		{
			"buffer":0,
			"byteLength":11652,
			"byteOffset":30144,
			"target":34963
		}
	],
	"buffers":[
		{
			"byteLength":41796,
			"uri":"Cobotta_j3.bin"
		}
	]
}
