{
	"asset":{
		"generator":"Khronos glTF Blender I/O v4.1.63",
		"version":"2.0"
	},
	"scene":0,
	"scenes":[
		{
			"name":"Scene",
			"nodes":[
				0,
				2
			]
		}
	],
	"nodes":[
		{
			"name":"Cobotta"
		},
		{
			"mesh":0,
			"name":"COBOTTA_J6"
		},
		{
			"children":[
				1
			],
			"name":"Cobotta.001"
		}
	],
	"materials":[
		{
			"doubleSided":true,
			"name":"mat_0.001",
			"pbrMetallicRoughness":{
				"metallicFactor":0.5,
				"roughnessFactor":0.5
			}
		}
	],
	"meshes":[
		{
			"name":"COBOTTA_J6",
			"primitives":[
				{
					"attributes":{
						"POSITION":0,
						"NORMAL":1
					},
					"indices":2,
					"material":0
				}
			]
		}
	],
	"accessors":[
		{
			"bufferView":0,
			"componentType":5126,
			"count":895,
			"max":[
				0.09366855025291443,
				0.029263069853186607,
				0.040005359798669815
			],
			"min":[
				0.025851648300886154,
				-0.029256848618388176,
				-0.02724410779774189
			],
			"type":"VEC3"
		},
		{
			"bufferView":1,
			"componentType":5126,
			"count":895,
			"type":"VEC3"
		},
		{
			"bufferView":2,
			"componentType":5123,
			"count":3144,
			"type":"SCALAR"
		}
	],
	"bufferViews":[
		{
			"buffer":0,
			"byteLength":10740,
			"byteOffset":0,
			"target":34962
		},
		{
			"buffer":0,
			"byteLength":10740,
			"byteOffset":10740,
			"target":34962
		},
		{
			"buffer":0,
			"byteLength":6288,
			"byteOffset":21480,
			"target":34963
		}
	],
	"buffers":[
		{
			"byteLength":27768,
			"uri":"Cobotta_j4.bin"
		}
	]
}
