{
	"asset":{
		"generator":"Khronos glTF Blender I/O v4.1.63",
		"version":"2.0"
	},
	"scene":0,
	"scenes":[
		{
			"name":"Scene",
			"nodes":[
				0
			]
		}
	],
	"nodes":[
		{
			"mesh":0,
			"name":"COBOTTA_J2"
		}
	],
	"materials":[
		{
			"doubleSided":true,
			"name":"mat_0",
			"pbrMetallicRoughness":{
				"metallicFactor":0.5,
				"roughnessFactor":0.5
			}
		}
	],
	"meshes":[
		{
			"name":"COBOTTA_J2",
			"primitives":[
				{
					"attributes":{
						"POSITION":0,
						"NORMAL":1
					},
					"indices":2,
					"material":0
				}
			]
		}
	],
	"accessors":[
		{
			"bufferView":0,
			"componentType":5126,
			"count":1115,
			"max":[
				0.057500001043081284,
				0.2181418240070343,
				0.049158528447151184
			],
			"min":[
				-0.049158502370119095,
				0.1029999777674675,
				-0.04915846139192581
			],
			"type":"VEC3"
		},
		{
			"bufferView":1,
			"componentType":5126,
			"count":1115,
			"type":"VEC3"
		},
		{
			"bufferView":2,
			"componentType":5123,
			"count":4710,
			"type":"SCALAR"
		}
	],
	"bufferViews":[
		{
			"buffer":0,
			"byteLength":13380,
			"byteOffset":0,
			"target":34962
		},
		{
			"buffer":0,
			"byteLength":13380,
			"byteOffset":13380,
			"target":34962
		},
		{
			"buffer":0,
			"byteLength":9420,
			"byteOffset":26760,
			"target":34963
		}
	],
	"buffers":[
		{
			"byteLength":36180,
			"uri":"Cobotta_j0.bin"
		}
	]
}
