{
	"asset":{
		"generator":"Khronos glTF Blender I/O v4.1.63",
		"version":"2.0"
	},
	"scene":0,
	"scenes":[
		{
			"name":"Scene",
			"nodes":[
				0
			]
		}
	],
	"nodes":[
		{
			"mesh":0,
			"name":"COBOTTA_BASE"
		}
	],
	"materials":[
		{
			"doubleSided":true,
			"name":"mat_0",
			"pbrMetallicRoughness":{
				"metallicFactor":0.5,
				"roughnessFactor":0.5
			}
		}
	],
	"meshes":[
		{
			"name":"COBOTTA_BASE",
			"primitives":[
				{
					"attributes":{
						"POSITION":0,
						"NORMAL":1
					},
					"indices":2,
					"material":0
				}
			]
		}
	],
	"accessors":[
		{
			"bufferView":0,
			"componentType":5126,
			"count":9974,
			"max":[
				0.0676310583949089,
				0.10799999535083771,
				0.06579998880624771
			],
			"min":[
				-0.0676310583949089,
				-1.993386256060603e-08,
				-0.2336999624967575
			],
			"type":"VEC3"
		},
		{
			"bufferView":1,
			"componentType":5126,
			"count":9974,
			"type":"VEC3"
		},
		{
			"bufferView":2,
			"componentType":5123,
			"count":28941,
			"type":"SCALAR"
		}
	],
	"bufferViews":[
		{
			"buffer":0,
			"byteLength":119688,
			"byteOffset":0,
			"target":34962
		},
		{
			"buffer":0,
			"byteLength":119688,
			"byteOffset":119688,
			"target":34962
		},
		{
			"buffer":0,
			"byteLength":57882,
			"byteOffset":239376,
			"target":34963
		}
	],
	"buffers":[
		{
			"byteLength":297260,
			"uri":"Cobotta_base.bin"
		}
	]
}
